PathFileType	4	(X/Y/Z)	pose_F01_0-96.trc
DataRate	CameraRate	NumFrames	NumMarkers	Units	OrigDataRate	OrigDataStartFrame	OrigNumFrames
30	30	8	21	m	30	60	96
Frame#	Time	CHip			RHip			RKnee			RAnkle			RBigToe			RSmallToe			RHeel			LHip			LKnee			LAnkle			LBigToe			LSmallToe			LHeel			Neck			Nose			RShoulder			RElbow			RWrist			LShoulder			LElbow			LWrist			
		X1	Y1	Z1	X2	Y2	Z2	X3	Y3	Z3	X4	Y4	Z4	X5	Y5	Z5	X6	Y6	Z6	X7	Y7	Z7	X8	Y8	Z8	X9	Y9	Z9	X10	Y10	Z10	X11	Y11	Z11	X12	Y12	Z12	X13	Y13	Z13	X14	Y14	Z14	X15	Y15	Z15	X16	Y16	Z16	X17	Y17	Z17	X18	Y18	Z18	X19	Y19	Z19	X20	Y20	Z20	X21	Y21	Z21	
60	2.0	-0.1462634496252756	1.8615769252218382	-0.4342602350493769	-0.15598579303802187	1.8599655862130564	-0.3681192313141946	-0.16642798708816942	1.722828638434679	-0.3479308310481288	-0.16512376205718246	1.6028045328565708	-0.3717382295368688							-0.13009954015650937	1.5953951986325476	-0.35112176656353816	-0.13734042405291436	1.8636609050047943	-0.4982197560118112	-0.138273766384439	1.7345181181508185	-0.5411170365666924	-0.14567803254361603	1.5867298025527765	-0.6050325759134517	-0.1843252985170634	1.543752529101836	-0.6273500759939649	-0.29748540893434033	1.4883153596496088	-1.128042527705076	-0.13766083559846368	1.5707999434123945	-0.6027595537585346	-0.16346545765995152	2.022168796374658	-0.46033066643005305	-0.20060308154888803	2.0660394073403396	-0.48145841052820526	-0.1743380416491081	2.017474388751425	-0.37455127759663576	-0.2264118380883813	1.9910779675073742	-0.3207438969275126	-0.2144727849816672	2.0477992962894747	-0.37928118446819953	-0.14874877991416124	2.026302068554729	-0.5486140646573954	-0.17242722353428608	1.9852869110137714	-0.6512802570954536	-0.21612862472477018	2.0131557250507566	-0.6007332887057502
61	2.033333333333333	-0.14611923965020046	1.8590507367520808	-0.4248826207809182	-0.15296044133144945	1.8558114662351544	-0.35708359654753374	-0.16457104622011523	1.720184309646664	-0.34986631762168274	-0.16512376205718246	1.6028045328565708	-0.3717382295368688							-0.13009954015650937	1.5953951986325476	-0.35112176656353816	-0.13553877466207934	1.8607539551104035	-0.48208011331803485	-0.13868691556281926	1.734987947411523	-0.5362265295551846	-0.14299009783180947	1.58931177715512	-0.6083878773362618	-0.17882641365510418	1.5459371351974966	-0.6293999855558072	-0.16328538049929553	1.5578183535932304	-0.6506184765080317	-0.13674702343479794	1.5741175698785248	-0.6045238682488793	-0.1607955940354535	2.0177288488069625	-0.45008492558267843	-0.199658783819423	2.062320715249395	-0.4779525416236461	-0.17039165486268537	2.0138412478400762	-0.36900689936153563	-0.22455422383427684	1.9834055512545992	-0.3212313052274207	-0.2162849670076647	2.0366518345106726	-0.38150073682593594	-0.14934933308727863	2.0193593823950673	-0.5299777675553659	-0.1779577847656238	1.971237597263685	-0.6230740629238699	-0.2207832593832589	2.0079028075249927	-0.5896036766004054
62	2.066666666666667	-0.14155921022295	1.8587419921046588	-0.4079533924000918	-0.14920764177028842	1.8569731881591438	-0.35270445786482735	-0.16642725929095922	1.7219955328685044	-0.34806515962150403	-0.16512376205718246	1.6028045328565708	-0.3717382295368688							-0.13009954015650937	1.5953951986325476	-0.35112176656353816	-0.13459288153628993	1.8607657569481888	-0.4783596409198578	-0.13605141198512063	1.7316357327149379	-0.5342646461847322	-0.14401921215968694	1.5869780075758941	-0.6064952533907845	-0.18431357133357051	1.5439504022190167	-0.6274790523590477	-0.29737273966501726	1.4916429748992401	-1.1302246878238358	-0.13535758466493802	1.570283480821575	-0.6050540531590279	-0.16089634486862675	2.0138331021125047	-0.440313204536758	-0.19709051673763456	2.0587102112193194	-0.4771865918064085	-0.16817319437746373	2.014709093361395	-0.3624011350066222	-0.21437950794886032	1.9782617386447592	-0.303842825601865	-0.20691266271884504	2.030051343969676	-0.37466966129821583	-0.15648969145854963	2.0126645489147177	-0.5161397098177997	-0.18348834599696148	1.957188283513599	-0.5948678687522863	-0.22543789404174766	2.0026498899992293	-0.5784740644950606
63	2.1	-0.14034559457114065	1.8528854226655977	-0.40328942620722513	-0.14791966174249296	1.8529258982758317	-0.3393248014927912	-0.16732229706923016	1.722935665226434	-0.34237531485818923	-0.16512376205718246	1.6028045328565708	-0.3717382295368688							-0.13009954015650937	1.5953951986325476	-0.35112176656353816	-0.13087263239599897	1.8565904938937043	-0.46435690227262494	-0.13879476939947286	1.7307486384028208	-0.5267745589379739	-0.1458347648242439	1.5916307928327424	-0.6096714799429914	-0.18196766851349927	1.5430188551498683	-0.6298692596183524	-0.2951239269913876	1.491216890333304	-1.1326450925853413	-0.1374267489127945	1.5753580936217153	-0.608452318506755	-0.15692453899212674	2.0090748280890507	-0.42542642204397796	-0.1951174795174114	2.050600781563378	-0.45923988356371603	-0.16208565588448567	2.0132653905364766	-0.3417996994182734	-0.19879229262925702	1.9708703507028598	-0.28517928778738677	-0.19582140202076145	2.015681029172845	-0.34398892151767446	-0.1529117824363509	2.0088325755322822	-0.5115078515813959	-0.1833699971596656	1.9423062211272701	-0.5716534615684513	-0.2300925287002364	1.9973969724734655	-0.5673444523897158
64	2.1333333333333333	-0.13875895026079502	1.856204126131617	-0.39138598599516894	-0.14526013503794666	1.8515551189493167	-0.3232564225988807	-0.1627395976785279	1.723067760107979	-0.3337777499904173	-0.16512376205718246	1.6028045328565708	-0.3717382295368688							-0.13009954015650937	1.5953951986325476	-0.35112176656353816	-0.1293204755666457	1.8584558724938585	-0.45227779398020296	-0.1402651156587887	1.7342749192890097	-0.5253292462065143	-0.14697262734085628	1.596292500158792	-0.6095185689528071	-0.18046416304392926	1.5450060583726326	-0.6231946050945024	-0.1680300445190429	1.558846111763717	-0.6459822011382854	-0.1450205256821687	1.5819481845821843	-0.6057960100020624	-0.15392148285341553	2.007933311283614	-0.41499630033591983	-0.19207374518946252	2.047293895646447	-0.44833032552021684	-0.15816508622383602	2.0074037887103837	-0.3356367380712404	-0.19137797799618017	1.960247052654482	-0.26725262542542677	-0.1942285381532319	2.0176593424269766	-0.33169793403836506	-0.15014821004190693	2.0117742436267236	-0.49349668596513574	-0.1838826897959797	1.9598507692351463	-0.5130417514860166	-0.22631581114315047	1.9340376006412752	-0.5115489330395527
65	2.1666666666666665	-0.13336800616871045	1.8636049883659211	-0.3815619733531075	-0.14057970713297469	1.8580092436648281	-0.3255717899027051	-0.158918423000714	1.7232954088669474	-0.3240087941555774	-0.16512376205718246	1.6028045328565708	-0.3717382295368688							-0.13009954015650937	1.5953951986325476	-0.35112176656353816	-0.12784626990115014	1.866753607435896	-0.446969956200709	-0.13963058299047934	1.7428649670719691	-0.5009548490662602	-0.14890780338332735	1.598774925031081	-0.5996202534274685	-0.17534854518158116	1.5522821268263154	-0.6257838905775124	-0.1633856383497298	1.5640723594539665	-0.651725569715816	-0.14680283138477856	1.5838382947764365	-0.5829067282802979	-0.15022471144822241	2.012016406300455	-0.4123430324105129	-0.18998888741406456	2.048464791610203	-0.43315870353929636	-0.15522869806303904	2.0113647410128235	-0.3275713247651562	-0.18774081270026696	1.959567453434772	-0.2559916784895651	-0.1948142205035429	2.0131857084557745	-0.32385054714799083	-0.14627931004550923	2.014187554191278	-0.4896263873125306	-0.18222895116862128	1.9597759489991093	-0.5159461902421796	-0.2242680148002122	1.9074192477796879	-0.5523564812614664
66	2.2	-0.1329845532129505	1.8679540478120478	-0.39117411042720646	-0.13768562823915403	1.8647519268335182	-0.33437432260515165	-0.15236855654992074	1.727166572267048	-0.32767996137275635	-0.16512376205718246	1.6028045328565708	-0.3717382295368688							-0.13009954015650937	1.5953951986325476	-0.35112176656353816	-0.1266258208730118	1.8690597815246057	-0.45308994367370703	-0.1487576670589206	1.745166696997734	-0.4952232762878695	-0.1406520733972029	1.6086091719402507	-0.5796350293285257	-0.1632731281533393	1.5722069772168057	-0.5942641962128112	-0.15157837894091067	1.5783911109192537	-0.624346919056872	-0.13584363826421167	1.5939702600904324	-0.5660018083086367	-0.14988409982961043	2.022007918421763	-0.40570180099881825	-0.18887601800092266	2.0529390985054374	-0.4231119758282249	-0.15192657822114985	2.0174417425019735	-0.3187034701403332	-0.1809829242807059	1.9741171286979238	-0.2314638700343622	-0.1908210167148174	2.021004023049025	-0.3135728381751346	-0.14511174856302242	2.0250746985247994	-0.4882669730105052	-0.16609598644171542	1.9639658186972624	-0.5280339464928577	-0.20552718092220368	1.9001550067973678	-0.5478356980305673
67	2.2333333333333334	-0.13291934845785774	1.8734809511148733	-0.39214963043615747	-0.13762314169288287	1.8698959968527682	-0.335442230444501	-0.14636365737270243	1.739160037404766	-0.3318721905900939	-0.16512376205718246	1.6028045328565708	-0.3717382295368688							-0.13009954015650937	1.5953951986325476	-0.35112176656353816	-0.12654915554097715	1.8770312709789903	-0.4543156796245819	-0.14893035731624357	1.7455015099670268	-0.495172340009538	-0.12868812594164172	1.6109853234842137	-0.5315823460146283	-0.15698876562487687	1.5791487728310156	-0.5322164855667826	-0.147467648510003	1.5821872547139733	-0.5686227333470787	-0.12310833583583723	1.602870205001594	-0.5277365819185407	-0.14789546085348712	2.0266236980501646	-0.4090453502810779	-0.183842866342621	2.0627180209827265	-0.4264907595119392	-0.1496530267532708	2.02144383555344	-0.3290201321409361	-0.1729989195879465	1.9766305760303515	-0.20764873390355934	-0.17607630427171514	2.0257543893286565	-0.2687058434534063	-0.14278335193201452	2.032631192531158	-0.49129550608346834	-0.15355227568360322	1.97082713855529	-0.5427611219477962	-0.1997150298899863	1.909265803894846	-0.5564466295622079
